<svg width="19" height="19" viewBox="0 0 19 19" fill="none" xmlns="http://www.w3.org/2000/svg">
<path d="M7.21007 2.11695C7.90411 1.77474 8.68051 1.58325 9.5 1.58325C12.4509 1.58325 14.8431 4.0661 14.8431 7.12885V7.68666C14.8431 8.35608 15.034 9.01053 15.3917 9.56753L16.2685 10.9325C17.0693 12.1792 16.4579 13.8738 15.0651 14.2681C11.4216 15.2994 7.57842 15.2994 3.93487 14.2681C2.54208 13.8738 1.93074 12.1792 2.73153 10.9325L3.60826 9.56753C3.96603 9.01053 4.15694 8.35608 4.15694 7.68666V7.12885C4.15694 6.2783 4.34143 5.47246 4.67114 4.75211" stroke="#1C274C" stroke-width="1.5" stroke-linecap="round"/>
<path d="M5.9375 15.0417C6.45606 16.4254 7.85528 17.4167 9.5 17.4167C9.69354 17.4167 9.88368 17.403 10.0694 17.3765M13.0625 15.0417C12.8511 15.6059 12.4933 16.1048 12.0321 16.4979" stroke="#1C274C" stroke-width="1.5" stroke-linecap="round"/>
</svg>
