<svg width="25" height="23" viewBox="0 0 25 23" fill="none" xmlns="http://www.w3.org/2000/svg">
<ellipse cx="15.625" cy="3.83317" rx="2.08333" ry="1.91667" stroke="#1C274C" stroke-width="1.5"/>
<ellipse cx="6.25" cy="17.25" rx="3.125" ry="2.875" stroke="#1C274C" stroke-width="1.5"/>
<ellipse cx="18.75" cy="17.25" rx="3.125" ry="2.875" stroke="#1C274C" stroke-width="1.5"/>
<path d="M19.2709 9.58335H17.1609C15.889 9.58335 15.253 9.58335 14.6807 9.3662C14.1084 9.14905 13.6573 8.73662 12.7551 7.91176L12.1537 7.36188C11.3363 6.61444 10.9275 6.24073 10.4435 6.28131C9.95942 6.32189 9.63084 6.75742 8.97368 7.62847M12.5 17.25L12.5596 16.9065C12.804 15.4982 12.9262 14.7941 12.5844 14.2192C12.2426 13.6443 11.5322 13.3591 10.1114 12.7888L8.57424 12.1717C7.49867 11.7399 6.96088 11.524 6.82657 11.0883C6.77358 10.9163 6.79357 10.7432 6.87828 10.5422" stroke="#1C274C" stroke-width="1.5" stroke-linecap="round"/>
</svg>
