<svg width="63" height="63" viewBox="0 0 63 63" fill="none" xmlns="http://www.w3.org/2000/svg">
<path d="M15.4583 9.375C16.2868 9.375 16.9583 8.70343 16.9583 7.875C16.9583 7.04657 16.2868 6.375 15.4583 6.375V7.875V9.375ZM26.25 6.375C25.4216 6.375 24.75 7.04657 24.75 7.875C24.75 8.70343 25.4216 9.375 26.25 9.375V7.875V6.375ZM47.5417 7.875V9.375C52.3045 9.375 56.25 13.381 56.25 18.4284H57.75H59.25C59.25 11.8189 54.0546 6.375 47.5417 6.375V7.875ZM15.4583 7.875V6.375C8.94538 6.375 3.75 11.8189 3.75 18.4284H5.25H6.75C6.75 13.381 10.6955 9.375 15.4583 9.375V7.875ZM57.75 18.4284H56.25C56.25 23.0281 52.9659 26.7722 48.7806 27.3911L49 28.875L49.2194 30.3589C54.9283 29.5147 59.25 24.462 59.25 18.4284H57.75ZM14 28.875L14.2194 27.3911C10.0341 26.7722 6.75 23.0281 6.75 18.4284H5.25H3.75C3.75 24.462 8.07167 29.5147 13.7806 30.3589L14 28.875ZM26.25 7.875V9.375H47.5417V7.875V6.375H26.25V7.875Z" fill="#999191"/>
<path d="M31.5 23.625V36.75M31.5 36.75L36.75 30.625M31.5 36.75L26.25 30.625" stroke="#999191" stroke-width="3" stroke-linecap="round" stroke-linejoin="round"/>
<path d="M13.125 26.25C13.125 21.3003 13.125 18.8254 14.6627 17.2877C16.2004 15.75 18.6753 15.75 23.625 15.75H39.375C44.3247 15.75 46.7996 15.75 48.3373 17.2877C49.875 18.8254 49.875 21.3003 49.875 26.25V42C49.875 46.9497 49.875 49.4246 48.3373 50.9623C46.7996 52.5 44.3247 52.5 39.375 52.5H23.625C18.6753 52.5 16.2004 52.5 14.6627 50.9623C13.125 49.4246 13.125 46.9497 13.125 42V26.25Z" stroke="#999191" stroke-width="3"/>
<path d="M13.125 44.625H34.125M49.875 44.625H44.625" stroke="#999191" stroke-width="3" stroke-linecap="round" stroke-linejoin="round"/>
</svg>
