<svg width="20" height="20" viewBox="0 0 20 20" fill="none" xmlns="http://www.w3.org/2000/svg">
<g clip-path="url(#clip0_135_2244)">
<path d="M12.8275 3.37806L12.3258 3.93553V3.93553L12.8275 3.37806ZM16.1265 6.34714L15.6248 6.90461V6.90461L16.1265 6.34714ZM18.0451 8.46177L17.36 8.76689L17.36 8.7669L18.0451 8.46177ZM2.64306 17.357L3.17339 16.8267H3.17339L2.64306 17.357ZM17.3571 17.357L16.8268 16.8267L16.8268 16.8267L17.3571 17.357ZM11.6667 18.3334V17.5834H8.33341V18.3334V19.0834H11.6667V18.3334ZM1.66675 11.6667H2.41675V8.33335H1.66675H0.916748V11.6667H1.66675ZM18.3334 11.3024H17.5834V11.6667H18.3334H19.0834V11.3024H18.3334ZM12.8275 3.37806L12.3258 3.93553L15.6248 6.90461L16.1265 6.34714L16.6282 5.78967L13.3293 2.82059L12.8275 3.37806ZM18.3334 11.3024H19.0834C19.0834 9.90651 19.0986 8.98371 18.7302 8.15664L18.0451 8.46177L17.36 8.7669C17.5683 9.23465 17.5834 9.77402 17.5834 11.3024H18.3334ZM16.1265 6.34714L15.6248 6.90461C16.7609 7.92707 17.1516 8.29915 17.36 8.76689L18.0451 8.46177L18.7302 8.15664C18.3619 7.32956 17.6658 6.7235 16.6282 5.78967L16.1265 6.34714ZM8.35824 1.66669V2.41669C9.68587 2.41669 10.1557 2.42827 10.5724 2.58817L10.8411 1.88795L11.1098 1.18774C10.3733 0.905108 9.57228 0.916687 8.35824 0.916687V1.66669ZM12.8275 3.37806L13.3293 2.82059C12.4312 2.01237 11.8462 1.47032 11.1098 1.18774L10.8411 1.88795L10.5724 2.58817C10.9892 2.74811 11.3441 3.05196 12.3258 3.93553L12.8275 3.37806ZM8.33341 18.3334V17.5834C6.74086 17.5834 5.6219 17.5818 4.77578 17.468C3.95123 17.3571 3.49897 17.1523 3.17339 16.8267L2.64306 17.357L2.11273 17.8874C2.76346 18.5381 3.58503 18.8214 4.57591 18.9546C5.54521 19.0849 6.78327 19.0834 8.33341 19.0834V18.3334ZM1.66675 11.6667H0.916748C0.916748 13.2168 0.915155 14.4549 1.04547 15.4242C1.1787 16.4151 1.462 17.2366 2.11273 17.8874L2.64306 17.357L3.17339 16.8267C2.84781 16.5011 2.64296 16.0489 2.5321 15.2243C2.41834 14.3782 2.41675 13.2592 2.41675 11.6667H1.66675ZM11.6667 18.3334V19.0834C13.2169 19.0834 14.455 19.0849 15.4243 18.9546C16.4151 18.8214 17.2367 18.5381 17.8874 17.8874L17.3571 17.357L16.8268 16.8267C16.5012 17.1523 16.0489 17.3571 15.2244 17.468C14.3783 17.5818 13.2593 17.5834 11.6667 17.5834V18.3334ZM18.3334 11.6667H17.5834C17.5834 13.2592 17.5818 14.3782 17.4681 15.2243C17.3572 16.0489 17.1524 16.5011 16.8268 16.8267L17.3571 17.357L17.8874 17.8874C18.5382 17.2366 18.8215 16.4151 18.9547 15.4242C19.085 14.4549 19.0834 13.2168 19.0834 11.6667H18.3334ZM1.66675 8.33335H2.41675C2.41675 6.7408 2.41834 5.62184 2.5321 4.77572C2.64296 3.95117 2.84781 3.49891 3.17339 3.17333L2.64306 2.643L2.11273 2.11267C1.462 2.7634 1.1787 3.58497 1.04547 4.57585C0.915155 5.54515 0.916748 6.78321 0.916748 8.33335H1.66675ZM8.35824 1.66669V0.916687C6.79975 0.916687 5.55573 0.915108 4.58256 1.04535C3.58837 1.17841 2.76405 1.46135 2.11273 2.11267L2.64306 2.643L3.17339 3.17333C3.49838 2.84833 3.95202 2.64312 4.78154 2.5321C5.63206 2.41827 6.75748 2.41669 8.35824 2.41669V1.66669Z" fill="black"/>
<path opacity="0.5" d="M5 12.0833H11.6667" stroke="black" stroke-width="1.5" stroke-linecap="round"/>
<path opacity="0.5" d="M5 15H9.58333" stroke="black" stroke-width="1.5" stroke-linecap="round"/>
<path opacity="0.5" d="M10.8333 2.08331V4.16665C10.8333 6.13083 10.8333 7.11292 11.4434 7.72312C12.0536 8.33331 13.0357 8.33331 14.9999 8.33331H18.3333" stroke="black" stroke-width="1.5"/>
</g>
<defs>
<clipPath id="clip0_135_2244">
<rect width="20" height="20" fill="white"/>
</clipPath>
</defs>
</svg>
