<svg width="21" height="21" viewBox="0 0 21 21" fill="none" xmlns="http://www.w3.org/2000/svg">
<path fill-rule="evenodd" clip-rule="evenodd" d="M17.325 8.90751C17.0538 6.12501 15.4088 1.75 10.3251 1.75C5.2413 1.75 3.59629 6.12501 3.32505 8.90751C2.37349 9.26866 1.74583 10.1822 1.75005 11.2V12.425C1.75005 13.7781 2.84697 14.875 4.20004 14.875C5.55314 14.875 6.65007 13.7781 6.65007 12.425V11.2C6.64564 10.2042 6.04107 9.30938 5.11879 8.93376C5.2938 7.32374 6.15132 3.50001 10.3251 3.50001C14.4988 3.50001 15.3476 7.32374 15.5226 8.93376C14.6022 9.31021 14.0006 10.2056 14.0001 11.2V12.425C14.0019 12.886 14.1334 13.3372 14.3794 13.7271C14.6254 14.117 14.976 14.4299 15.3913 14.63C15.0238 15.3212 14.0876 16.2575 11.7863 16.5375C11.3263 15.839 10.4363 15.5636 9.66217 15.8803C8.88808 16.1969 8.44622 17.0171 8.60766 17.8378C8.7691 18.6584 9.48868 19.25 10.3251 19.25C10.6491 19.2482 10.9664 19.1564 11.2414 18.985C11.5163 18.8135 11.7383 18.569 11.8826 18.2788C15.6363 17.85 16.8351 15.9163 17.2113 14.7787C18.2292 14.449 18.9138 13.4949 18.9 12.425V11.2C18.9043 10.1822 18.2766 9.26866 17.325 8.90751ZM4.90005 12.425C4.90005 12.8116 4.58665 13.125 4.20004 13.125C3.81342 13.125 3.50007 12.8116 3.50007 12.425V11.2C3.49936 11.1076 3.51694 11.016 3.5518 10.9305C3.58666 10.8449 3.63811 10.7671 3.70318 10.7016C3.76825 10.636 3.84566 10.5839 3.93094 10.5484C4.01622 10.5129 4.10768 10.4946 4.20006 10.4946C4.29244 10.4946 4.3839 10.5129 4.46918 10.5484C4.55446 10.5839 4.63186 10.636 4.69693 10.7016C4.762 10.7671 4.81345 10.8449 4.84831 10.9305C4.88318 11.016 4.90076 11.1076 4.90005 11.2V12.425ZM15.75 11.2C15.75 10.8134 16.0634 10.5 16.4501 10.5C16.8367 10.5 17.1501 10.8134 17.1501 11.2V12.425C17.1501 12.8116 16.8367 13.125 16.4501 13.125C16.0634 13.125 15.75 12.8116 15.75 12.425V11.2Z" fill="black"/>
</svg>
