<svg width="19" height="19" viewBox="0 0 19 19" fill="none" xmlns="http://www.w3.org/2000/svg">
<path d="M4.75 7.91665V6.33331C4.75 6.06358 4.77248 5.7991 4.81568 5.54165M14.25 7.91665V6.33331C14.25 3.70996 12.1234 1.58331 9.5 1.58331C8.0813 1.58331 6.80787 2.20527 5.9375 3.1914" stroke="#1C274C" stroke-width="1.5" stroke-linecap="round"/>
<path d="M8.70825 17.4167H6.33325C4.09408 17.4167 2.97449 17.4167 2.27887 16.7211C1.58325 16.0254 1.58325 14.9059 1.58325 12.6667C1.58325 10.4275 1.58325 9.30793 2.27887 8.61231C2.97449 7.91669 4.09408 7.91669 6.33325 7.91669H12.6666C14.9058 7.91669 16.0253 7.91669 16.721 8.61231C17.4166 9.30793 17.4166 10.4275 17.4166 12.6667C17.4166 14.9059 17.4166 16.0254 16.721 16.7211C16.0253 17.4167 14.9058 17.4167 12.6666 17.4167H11.8749" stroke="#1C274C" stroke-width="1.5" stroke-linecap="round"/>
</svg>
