<svg width="20" height="20" viewBox="0 0 20 20" fill="none" xmlns="http://www.w3.org/2000/svg">
<path d="M10.4167 5.86782C10.2812 5.84508 10.142 5.83325 10 5.83325C8.61929 5.83325 7.5 6.95254 7.5 8.33325C7.5 9.71396 8.61929 10.8333 10 10.8333C11.3807 10.8333 12.5 9.71396 12.5 8.33325C12.5 8.19129 12.4882 8.05209 12.4654 7.91659" stroke="#1C274C" stroke-width="1.5" stroke-linecap="round"/>
<path d="M4.16665 12.6802C3.62709 11.3019 3.33331 9.83453 3.33331 8.45283C3.33331 4.70498 6.31808 1.66675 9.99998 1.66675C13.6819 1.66675 16.6666 4.70498 16.6666 8.45283C16.6666 12.1713 14.5389 16.5104 11.2191 18.0621C10.4452 18.4238 9.55477 18.4238 8.78087 18.0621C7.72059 17.5665 6.78191 16.7866 5.9953 15.8334" stroke="#1C274C" stroke-width="1.5" stroke-linecap="round"/>
</svg>
