<svg width="21" height="21" viewBox="0 0 21 21" fill="none" xmlns="http://www.w3.org/2000/svg">
<path d="M14 3.5C15.9031 3.51059 16.9338 3.59499 17.6062 4.26732C18.375 5.03617 18.375 6.27361 18.375 8.74848V13.9985C18.375 16.4734 18.375 17.7108 17.6062 18.4796C16.8373 19.2485 15.5999 19.2485 13.125 19.2485H7.875C5.40013 19.2485 4.16269 19.2485 3.39384 18.4796C2.625 17.7108 2.625 16.4734 2.625 13.9985V8.74848C2.625 6.27361 2.625 5.03617 3.39384 4.26732C4.06618 3.59499 5.09685 3.51059 7 3.5" stroke="#1C274C" stroke-width="1.5"/>
<path d="M7.875 11.9L9.625 14L13.125 9.625" stroke="#1C274C" stroke-width="1.5" stroke-linecap="round" stroke-linejoin="round"/>
<path d="M7 3.0625C7 2.33763 7.58763 1.75 8.3125 1.75H12.6875C13.4124 1.75 14 2.33763 14 3.0625V3.9375C14 4.66237 13.4124 5.25 12.6875 5.25H8.3125C7.58763 5.25 7 4.66237 7 3.9375V3.0625Z" stroke="#1C274C" stroke-width="1.5"/>
</svg>
