<svg width="23" height="22" viewBox="0 0 23 22" fill="none" xmlns="http://www.w3.org/2000/svg">
<path d="M9.61937 4.87318L10.2413 5.9392C10.8026 6.90122 10.5773 8.16324 9.69327 9.00884C9.69327 9.00884 8.62096 10.0345 10.5652 11.8942C12.5093 13.7539 13.5817 12.7282 13.5817 12.7282C14.4657 11.8826 15.7851 11.6671 16.7909 12.204L17.9053 12.7989C19.424 13.6096 19.6034 15.6468 18.2685 16.9237C17.4664 17.6909 16.4837 18.288 15.3975 18.3273C13.5688 18.3937 10.4634 17.951 7.34823 14.9713C4.23309 11.9916 3.7703 9.02114 3.83962 7.27202C3.8808 6.23299 4.50495 5.29307 5.30707 4.52582C6.64198 3.24895 8.7718 3.4205 9.61937 4.87318Z" stroke="#1C274C" stroke-width="1.5" stroke-linecap="round"/>
</svg>
