<svg width="272" height="314" viewBox="0 0 272 314" fill="none" xmlns="http://www.w3.org/2000/svg">
<path fill-rule="evenodd" clip-rule="evenodd" d="M207.369 149.189C204.965 126.556 213.09 85.3397 230.388 69.1702C243 57.384 252.019 53.3373 268.213 48.8963C280.774 46.4562 290.626 44.5395 303.924 46.5882C320.268 49.1075 346.724 56.4332 368.443 61.6495C386.754 66.0466 411.64 73.9549 427.653 80.2978C455.048 91.1499 476.776 103.468 480.11 135.048L480.863 140.876C480.866 140.995 480.871 141.333 480.867 141.452C480.862 141.535 480.853 141.656 480.845 141.738C480.357 147.727 478.748 152.48 476.892 158.113C476.487 159.343 476.847 158.197 476.664 159.246C474.685 170.554 455.462 188.051 444.464 190.254L443.584 190.433C441.59 191.011 438.3 191.888 434.132 191.13L221.186 152.453L207.366 149.192L207.369 149.189ZM29.0509 450.004C25.3307 444.038 22.7028 435.433 20.1136 428.752C19.7791 427.213 19.8634 426.826 19.2295 425.218C15.8168 416.553 11.7619 373.389 11.1848 366.317C11.0979 365.249 11.0567 365.461 10.8362 364.557C10.1992 361.935 10.2973 358.937 9.99567 356.128L8.64025 345.638C8.49195 344.264 8.30168 343.445 8.13579 342.136L1.92205 286.856C1.66328 284.429 1.55972 282.411 1.28623 279.886C0.288911 270.702 -0.504142 261.627 0.387895 252.444C0.535901 250.911 0.368606 250.418 0.406758 248.989C0.555244 243.392 1.29823 237.674 2.57509 232.191C8.06875 208.602 20.0352 183.035 38.9915 167.201C59.5274 150.047 83.3789 137.371 110.644 135.813C113.164 135.669 115.332 135.321 117.891 135.288C120.861 135.252 132.026 135.083 135.709 135.716C137.161 135.965 137.549 136.169 139.113 136.3L146.231 137.23C147.592 137.351 148.626 137.314 149.916 137.897L160.039 140.621L160.199 138.043C160.198 137.96 160.196 137.839 160.197 137.755C160.198 137.701 160.175 136.913 160.176 136.888C160.178 136.805 160.181 136.685 160.185 136.601L160.239 136.028C160.294 135.457 160.295 135.766 160.35 135.175L162.385 115.195C162.771 112.148 162.737 109.066 163.344 106.064C163.823 103.699 164.088 101.57 164.61 99.2646C164.868 98.1191 165.169 97.1342 165.348 95.8757C170.521 59.1084 199.386 31.0653 229.783 13.6047C240.675 7.3469 263.119 0.919309 275.163 0.352237L282.092 0.16201C286.903 -0.309829 293 0.358771 297.878 0.767834L311.244 2.68164C320.184 4.73236 328.98 7.91776 337.942 10.0734C345.441 11.8785 352.628 14.6677 360.114 16.5383C367.517 18.3883 374.545 21.5574 381.975 23.2806C387.375 24.5316 390.328 25.964 395.43 27.413C397.262 27.9339 397.809 27.9923 399.629 28.7732L421.484 35.5659C424.568 36.0255 427.994 37.4637 430.745 38.2812L443.953 41.9632C449.901 43.7192 455.839 45.5723 461.55 48.0487C464.553 49.3511 467.103 50.8896 470.107 52.1908L478.883 57.119C484.121 60.5584 491.725 65.3815 495.876 69.9495C498.375 72.7004 501.538 75.4679 504.04 78.4633C511.041 86.8453 516.32 96.3733 520.735 106.171C525.459 116.661 526.91 130.339 527.095 141.592C527.215 148.92 526.264 156.125 525.057 163.298C522.26 179.921 513.686 191.615 504.109 204.621C502.56 206.722 494.162 214.634 491.94 216.49C471.002 233.979 454.144 238.426 428.462 240.217C419.963 240.494 411.769 237.939 403.439 236.612C347.757 225.813 206.229 189.851 132.313 183.204L124.561 182.941C123.065 183.001 122.195 182.848 120.53 182.904C109.128 183.286 104.392 184.421 94.1317 188.227C73.13 193.766 50.442 218.72 48.6937 243.817C47.927 248.083 46.9233 261.494 47.5203 267.063C47.5298 267.146 47.5421 267.27 47.5519 267.35L47.8563 270.506C47.4374 282.594 62.2302 395.504 65.8826 414.999L68.4412 422.429C69.236 423.888 69.7623 424.645 70.53 426.072C80.8755 445.294 88.8835 448.119 106.905 453.469C126.26 459.226 150.131 444.441 160.5 428.386C163.755 423.346 165.967 415.303 166.877 409.373C168.04 401.822 166.396 387.069 165.869 379.33C165.781 377.884 165.055 377.85 165.723 376.147C167.959 370.43 171.639 377.36 173.208 378.968L180.945 385.868C182.595 387.545 184.266 388.196 186.093 389.491C191.323 393.199 196.326 396.547 201.895 399.547C202.892 400.083 203.484 400.52 204.626 401.218L207.128 402.212C207.524 402.358 207.535 402.397 207.962 402.555C208.046 402.588 208.158 402.629 208.24 402.659L209.915 403.241C216.055 406.119 213.656 410.75 213.367 415.272C212.626 421.692 211.576 427.484 209.388 433.635C197.557 464.616 173.885 490.992 140.871 498.629C120.958 503.244 98.7188 503.451 79.5228 495.432C53.0082 482.797 44.4928 474.711 29.0515 449.996L29.0509 450.004Z" fill="#FF2509" fill-opacity="0.2"/>
</svg>
