<svg width="122" height="114" viewBox="0 0 122 114" fill="none" xmlns="http://www.w3.org/2000/svg">
<path fill-rule="evenodd" clip-rule="evenodd" d="M24.2665 162.468L33.1518 171.932C34.5382 173.274 35.9023 173.598 37.5673 174.849C39.4144 176.237 40.3748 177.452 42.2253 178.468C43.3401 179.083 43.1676 178.808 44.4384 179.824C45.0682 180.328 45.9171 181.127 46.6297 181.538C47.5685 182.077 47.7741 181.866 48.8648 182.561C49.6566 183.064 50.5552 183.994 51.3328 184.423C52.643 185.145 52.0734 184.434 53.5813 185.238C55.1725 186.087 54.5434 186.172 55.7955 186.595L56.929 186.842C57.6309 187.097 57.536 187.15 58.0384 187.458L65.0424 190.341C71.2143 193.082 72.1133 192.305 74.3575 193.052C75.1156 193.305 75.6589 193.784 76.5941 194.014L78.0236 194.133C78.1068 194.138 78.229 194.129 78.3119 194.137C79.0863 194.209 78.4755 194.089 79.1648 194.28L88.5503 195.87C90.7954 195.982 93.1026 196.492 95.4197 196.311C96.9109 196.194 96.6837 195.801 97.9603 197.028C99.6057 195.644 99.9409 196.114 101.746 196.258C105.865 196.587 109.409 196.04 113.579 195.494C119.286 194.747 118.961 194.016 121.468 193.5C122.934 193.198 124.019 193.01 125.552 192.556L135.537 189.193C136.408 188.902 136.702 188.757 137.599 188.408C139.92 187.502 139.125 187.876 141.465 186.357C142.782 185.504 144.062 185.504 145.597 184.687C147.021 183.929 148.117 182.893 149.492 182.184C160.714 176.4 173.337 164.078 180.109 154.52C182.287 151.447 183.342 149.121 185.04 146.21L188.528 140.106C189.995 137.496 190.304 135.481 190.916 133.934C191.814 131.663 191.758 134.204 194.497 125.539C196.827 118.167 199.188 105.598 198.934 97.8034L216.686 101.443C219.171 101.867 217.789 102.398 219.715 100.108C226.616 91.8994 265.286 70.3734 267.834 58.0653C267.808 58.046 151.661 37.4765 121.947 30.105C112.415 27.7401 105.381 28.1926 102.122 31.3199C101.452 31.9636 100.502 31.9855 99.8276 32.9775C97.6695 36.1461 96.134 39.782 95.0341 43.7155C92.9201 51.2808 89.7981 95.2064 89.9787 106.041C90.1115 114.004 113.151 114.032 123.898 114.542C131.609 114.908 130.753 116.04 131.373 105.725C131.858 97.6387 132.094 86.5595 133.882 84.474L151.199 88.0234L151.205 89.1665C151.161 90.7516 151.108 91.2966 151.196 92.9028L151.073 100.657C150.533 107.205 148.114 118.529 143.826 123.194C142.371 124.776 142.866 125.633 141.748 127.086C140.8 128.321 139.665 129.294 138.619 130.625C135.373 134.76 137.36 133.134 132.796 137.155C129.994 139.622 127.001 140.847 123.82 142.757C120.744 144.602 113.887 147.03 110.295 147.543L105.636 148.51C99.6017 149.086 93.8595 148.599 87.8662 147.709C83.1847 147.014 78.7685 145.778 74.9506 142.851C67.9149 137.455 68.2781 140.013 59.6546 130.222L52.5742 118.851C51.8299 117.28 51.2795 116.457 50.5341 114.986C49.501 112.951 50.2859 114.944 50.1765 113.238C50.0376 111.046 50.3937 113.13 49.4472 111.18C48.7713 109.791 49.1579 110.896 49.0829 109.432C49.0788 109.347 49.0947 109.228 49.0878 109.146C48.9443 107.413 48.3699 106.364 48.2716 103.632C47.2923 96.6044 51.3157 33.8756 51.4098 15.0038C51.4206 12.7301 52.0469 9.52055 49.4875 7.86234C47.1146 6.32402 37.943 5.66676 34.7064 5.07989L27.3124 3.83655C25.583 3.28962 25.1512 3.57596 23.6107 3.26666L21.6311 2.773C18.5551 2.15744 15.4816 2.03836 12.5269 1.29267C10.3435 0.741548 6.83016 1.12865 5.13731 6.72219e-06C2.18394 2.60114 3.03313 3.41128 3.23365 6.77859C5.82604 41.1116 -2.47511 88.4021 0.760244 110.973L2.24449 118.253C2.4564 119.034 2.54396 119.222 2.7813 120.011C3.7139 123.108 3.54689 123.863 4.79004 127.325L6.53724 132.897C7.00014 134.665 7.76318 134.936 8.40549 136.465C9.14484 138.222 8.2633 137.947 9.45065 139.98C11.4766 143.45 10.8324 144.007 13.7497 147.439C15.1421 149.077 17.003 154.229 24.2697 162.478L24.2665 162.468Z" fill="#FF2509" fill-opacity="0.2"/>
</svg>
