<svg width="111" height="81" viewBox="0 0 111 81" fill="none" xmlns="http://www.w3.org/2000/svg">
<path fill-rule="evenodd" clip-rule="evenodd" d="M57.7808 12.4166C59.4516 9.92171 63.76 6.43565 66.879 6.26143C69.1528 6.13477 70.4082 6.48782 72.4234 7.40769C73.9016 8.22297 75.0612 8.86209 76.2344 10.1942C77.6762 11.8316 79.7352 14.8108 81.4932 17.1758C82.9753 19.1696 84.8262 22.075 85.911 24.0715C87.767 27.4872 88.9251 30.572 86.5919 34.0515L86.1753 34.7052C86.1656 34.7175 86.1374 34.7522 86.127 34.7639C86.1194 34.7719 86.1083 34.7833 86.1005 34.7911C85.5446 35.3562 84.9797 35.7012 84.3154 36.1147C84.1703 36.2049 84.3037 36.1193 84.1965 36.21C83.0398 37.1877 79.6137 37.3335 78.3138 36.6264L78.2095 36.5701C77.9588 36.46 77.5514 36.2705 77.1935 35.8412L58.9037 13.9156L57.7803 12.4166H57.7808ZM14.2851 27.7932C14.413 26.8745 14.8747 25.781 15.1776 24.8856C15.2739 24.7014 15.3151 24.6694 15.387 24.453C15.7742 23.2871 19.0142 18.5737 19.5539 17.8089C19.6354 17.6934 19.6133 17.7113 19.6674 17.6012C19.8247 17.2819 20.0882 16.9866 20.2952 16.6767L21.0452 15.4999C21.1464 15.3482 21.1963 15.2492 21.2903 15.1027L25.3363 8.98002C25.5154 8.71238 25.6756 8.49934 25.8614 8.22054C26.5372 7.20629 27.2244 6.22042 28.0913 5.36607C28.2359 5.2234 28.2607 5.15934 28.3854 5.01788C28.8739 4.46368 29.4327 3.94757 30.0257 3.50038C32.5769 1.5767 35.9508 0 39.2093 0C42.7393 0 46.2263 0.733757 49.1186 2.88189C49.386 3.08037 49.635 3.22862 49.8968 3.44166C50.2006 3.68916 51.3454 4.61631 51.6647 4.99192C51.7906 5.13993 51.8127 5.19331 51.96 5.3389L52.602 6.03504C52.7297 6.16243 52.8374 6.24615 52.9187 6.4143L53.7133 7.54624L53.9475 7.29873C53.9545 7.29024 53.9645 7.27787 53.9718 7.26937C53.9764 7.26404 54.0407 7.18227 54.0429 7.17984C54.0501 7.17159 54.0606 7.1597 54.0681 7.15145L54.122 7.09807C54.1758 7.04493 54.1499 7.07623 54.2054 7.02115L56.1012 5.17026C56.398 4.89438 56.6552 4.57942 56.9706 4.32683C57.2191 4.12786 57.426 3.93472 57.6738 3.74545C57.7968 3.65131 57.9106 3.57706 58.0351 3.46472C61.6684 0.179558 66.9627 -0.218621 71.5171 0.584289C73.1492 0.871823 75.9653 2.11925 77.2326 3.08036L77.9504 3.64719C78.4774 4.0063 79.0381 4.58961 79.4975 5.0436L80.6888 6.36772C81.4206 7.3315 82.0418 8.39792 82.7668 9.37408C83.3735 10.1911 83.8653 11.0813 84.4651 11.9039C85.0581 12.7172 85.5017 13.6325 86.1083 14.4354C86.5492 15.0187 86.727 15.4135 87.1211 15.9917C87.2626 16.1994 87.313 16.2516 87.4312 16.4845L89.0695 19.0206C89.343 19.3281 89.5682 19.7634 89.7776 20.0788L90.8035 21.5686C91.2572 22.2495 91.7017 22.9393 92.0705 23.6731C92.2644 24.0589 92.3925 24.4304 92.5867 24.8162L93.0583 26.0573C93.2978 26.8486 93.6599 27.98 93.6938 28.7936C93.7142 29.2835 93.8004 29.8312 93.8004 30.3461C93.8004 31.7869 93.5291 33.1981 93.1474 34.5634C92.7385 36.0251 91.7287 37.5327 90.7957 38.6877C90.1881 39.4399 89.4825 40.089 88.7536 40.713C87.0645 42.1597 85.2074 42.6185 83.1378 43.1254C82.8032 43.2072 81.2838 43.2979 80.9019 43.2979C77.3027 43.2979 75.2199 42.3225 72.468 40.3318C71.5841 39.641 70.9705 38.6894 70.2394 37.8506C65.5148 32.048 54.2265 16.4372 47.3046 9.51286L46.542 8.83055C46.3855 8.7102 46.3103 8.62115 46.137 8.486C44.9502 7.56031 44.3747 7.27472 43.0139 6.79234C40.4191 5.57694 36.0115 6.18476 33.7119 8.57796C33.2735 8.94508 32.0377 10.218 31.6271 10.8324C31.6211 10.8416 31.6119 10.8552 31.606 10.8641L31.3699 11.2094C30.3052 12.3979 22.2538 25.0812 20.9748 27.364L20.6055 28.3326C20.5626 28.5476 20.5519 28.6687 20.5089 28.8781C19.9307 31.6993 20.5026 32.6626 21.8748 34.7285C23.3476 36.9482 27.015 37.4701 29.4227 36.7215C30.1786 36.4864 31.0826 35.8592 31.6764 35.3358C32.4327 34.6695 33.5139 33.0367 34.1152 32.2086C34.2285 32.0548 34.1579 31.99 34.3695 31.874C35.0795 31.4843 34.866 32.4971 34.8888 32.7926L35.0887 34.1456C35.1139 34.455 35.228 34.6622 35.3034 34.9478C35.5194 35.7655 35.7429 36.5277 36.053 37.3024C36.1085 37.441 36.1316 37.5354 36.1881 37.7025L36.3575 38.0148C36.3851 38.0631 36.383 38.068 36.4128 38.1201C36.4186 38.1306 36.4264 38.1442 36.4322 38.1541L36.5526 38.3548C36.9309 39.1654 36.2963 39.4314 35.8846 39.8647C35.2666 40.4522 34.6704 40.9498 33.9286 41.3876C30.1106 43.5238 25.4831 44.1923 21.4946 42.1735C19.088 40.9566 16.8188 39.0968 15.5534 36.6614C13.9374 33.1396 13.7591 31.6008 14.2858 27.7925L14.2851 27.7932Z" fill="white"/>
<path fill-rule="evenodd" clip-rule="evenodd" d="M36.3729 31.6551L36.4721 33.3648C36.4991 33.6179 36.6097 33.7661 36.6725 34.0335C36.7422 34.3303 36.7366 34.5346 36.838 34.794C36.8989 34.9505 36.9048 34.908 36.9475 35.1184C36.9686 35.2227 36.987 35.3753 37.0244 35.4773C37.0739 35.6112 37.1125 35.6073 37.1641 35.7699C37.2018 35.8878 37.2141 36.0579 37.2566 36.1671C37.3282 36.351 37.3306 36.2309 37.4153 36.4398C37.5046 36.6604 37.4337 36.6157 37.5247 36.7645L37.6186 36.8853C37.6681 36.9705 37.654 36.9678 37.6788 37.0416L38.1442 37.9258C38.5373 38.7253 38.694 38.7226 38.858 38.9881C38.9134 39.0778 38.9279 39.1722 39.0031 39.2746L39.1378 39.4076C39.1458 39.4151 39.1589 39.4246 39.1667 39.4324C39.239 39.5051 39.1873 39.4413 39.2409 39.519L40.0567 40.4738C40.2746 40.6749 40.4651 40.9217 40.715 41.0993C40.8759 41.2136 40.8861 41.1546 40.9115 41.3869C41.1952 41.3859 41.1894 41.4618 41.3599 41.629C41.7491 42.0107 42.1544 42.255 42.6227 42.5525C43.2637 42.9594 43.2926 42.858 43.5901 43.0177C43.7641 43.1111 43.8897 43.1839 44.0834 43.2676L45.3789 43.7716C45.4917 43.8157 45.5337 43.8259 45.654 43.8664C45.9656 43.971 45.8535 43.9417 46.2189 43.9858C46.4244 44.0108 46.554 44.119 46.7784 44.1661C46.9869 44.2098 47.1853 44.1976 47.3846 44.2421C49.01 44.6055 51.3302 44.4255 52.8242 44.0305C53.3046 43.9036 53.6081 43.7572 54.0262 43.6061L54.8956 43.2831C55.2649 43.1429 55.4666 42.965 55.6595 42.8602C55.9424 42.7061 55.7218 42.9587 56.7319 42.313C57.5914 41.7637 58.8934 40.6907 59.527 39.88L61.0166 41.7499C61.2323 42.0029 61.0474 41.9398 61.4361 41.8709C62.8291 41.6234 68.565 42.7144 69.8638 41.6836C69.8629 41.6795 59.8426 29.7739 57.4574 26.5145C56.6924 25.4689 55.9419 24.9198 55.3474 24.9608C55.2251 24.9693 55.1271 24.8912 54.975 24.9346C54.4885 25.0729 54.0255 25.3112 53.5815 25.6164C52.7276 26.2036 48.6965 30.3871 47.7985 31.4993C47.1385 32.3168 49.4689 34.2682 50.5139 35.2288C51.2637 35.9179 51.0812 35.9601 52.0164 34.9682C52.7494 34.1905 53.7103 33.0887 54.0677 33.0287L55.5209 34.8527L55.4248 34.9689C55.2863 35.1257 55.2348 35.1764 55.1079 35.3465L54.4397 36.1212C53.8311 36.7385 52.6286 37.6805 51.8 37.7901C51.5187 37.8273 51.4964 37.9559 51.2603 38.0085C51.0599 38.0534 50.8626 38.0558 50.6442 38.1022C49.9658 38.2463 50.3045 38.2497 49.5024 38.2708C49.01 38.2837 48.6034 38.1546 48.1198 38.0789C47.6522 38.0056 46.7527 37.6715 46.3456 37.4196L45.7921 37.1236C45.1323 36.6715 44.5922 36.1365 44.0606 35.5396C43.6454 35.0733 43.3028 34.5746 43.1638 33.9554C42.9078 32.814 42.7282 33.1037 42.6831 31.3831L42.9279 29.6329C42.9854 29.4109 42.9993 29.2811 43.0483 29.069C43.1157 28.7757 43.0267 29.0438 43.1599 28.8618C43.3312 28.6281 43.1909 28.8693 43.2601 28.5917C43.3091 28.394 43.2548 28.5386 43.371 28.384C43.3778 28.3751 43.3894 28.3644 43.3957 28.3554C43.5277 28.1678 43.5583 28.013 43.7794 27.7282C44.2746 26.9338 49.9872 20.9227 51.5927 19.0199C51.7861 18.7906 52.121 18.5186 52.0021 18.1343C51.8919 17.7778 51.0189 16.9356 50.7408 16.6024L50.0973 15.8512C49.9685 15.6496 49.9005 15.6421 49.7707 15.4805L49.612 15.263C49.3526 14.9406 49.0515 14.6686 48.8154 14.3432C48.641 14.1027 48.2525 13.8448 48.1766 13.5873C47.6575 13.6009 47.675 13.7548 47.4105 14.1127C44.7693 17.8081 39.9293 21.8943 38.348 24.4532L37.8826 25.3158C37.838 25.4129 37.8309 25.4393 37.7882 25.5393C37.6208 25.9316 37.54 25.994 37.3731 26.4497L37.0787 27.1616C36.9761 27.3797 37.0304 27.4717 36.9661 27.6808C36.8924 27.9213 36.8264 27.8189 36.7747 28.1251C36.6864 28.6478 36.574 28.6497 36.5791 29.244C36.5815 29.5276 36.3343 30.2065 36.3724 31.6563L36.3729 31.6551Z" fill="white"/>
<path d="M4.13324 52.4478C4.41279 52.4478 4.70231 52.5277 5.00182 52.6874C5.3213 52.8272 5.56091 53.0169 5.72065 53.2565L12.9987 64.4582L11.5012 64.3983L18.959 53.2565C19.3384 52.7174 19.8276 52.4478 20.4266 52.4478C20.9058 52.4478 21.3351 52.6175 21.7145 52.957C22.0939 53.2964 22.2836 53.7357 22.2836 54.2748V71.6165C22.2836 72.1356 22.1138 72.5749 21.7744 72.9343C21.435 73.2738 20.9857 73.4435 20.4266 73.4435C19.8675 73.4435 19.4083 73.2738 19.0489 72.9343C18.7094 72.5749 18.5397 72.1356 18.5397 71.6165V57.5095L19.7078 57.7791L13.5978 67.0939C13.4181 67.3135 13.1884 67.5032 12.9089 67.6629C12.6493 67.8227 12.3798 67.8926 12.1002 67.8726C11.8406 67.8926 11.5711 67.8227 11.2915 67.6629C11.032 67.5032 10.8123 67.3135 10.6326 67.0939L4.91197 58.0486L5.6907 56.4612V71.6165C5.6907 72.1356 5.53096 72.5749 5.21148 72.9343C4.892 73.2738 4.47269 73.4435 3.95354 73.4435C3.45435 73.4435 3.04502 73.2738 2.72554 72.9343C2.40607 72.5749 2.24633 72.1356 2.24633 71.6165V54.2748C2.24633 53.7756 2.42603 53.3463 2.78545 52.9869C3.16483 52.6275 3.61409 52.4478 4.13324 52.4478Z" fill="white"/>
<path d="M32.2628 73.743C30.5656 73.743 29.088 73.3936 27.83 72.6947C26.5921 71.9759 25.6336 71.0075 24.9547 69.7895C24.2958 68.5714 23.9664 67.1937 23.9664 65.6562C23.9664 63.8591 24.3258 62.3316 25.0446 61.0737C25.7834 59.7958 26.7418 58.8174 27.9199 58.1385C29.098 57.4596 30.3459 57.1202 31.6638 57.1202C32.6821 57.1202 33.6405 57.3298 34.5391 57.7491C35.4576 58.1685 36.2662 58.7475 36.9651 59.4863C37.664 60.2051 38.2131 61.0438 38.6124 62.0022C39.0317 62.9606 39.2414 63.979 39.2414 65.0572C39.2214 65.5364 39.0317 65.9258 38.6723 66.2253C38.3129 66.5248 37.8936 66.6745 37.4144 66.6745H25.9731L25.0745 63.6794H36.0666L35.4076 64.2785V63.4698C35.3677 62.8907 35.1581 62.3716 34.7787 61.9123C34.4193 61.4531 33.96 61.0937 33.4009 60.8341C32.8618 60.5546 32.2828 60.4148 31.6638 60.4148C31.0647 60.4148 30.5057 60.4947 29.9865 60.6544C29.4674 60.8141 29.0181 61.0837 28.6387 61.4631C28.2593 61.8424 27.9598 62.3516 27.7402 62.9906C27.5205 63.6295 27.4107 64.4382 27.4107 65.4166C27.4107 66.4948 27.6304 67.4133 28.0696 68.1721C28.5289 68.9109 29.1079 69.48 29.8068 69.8793C30.5256 70.2587 31.2844 70.4484 32.0831 70.4484C32.8219 70.4484 33.4109 70.3885 33.8502 70.2687C34.2895 70.1489 34.6389 70.0091 34.8985 69.8494C35.178 69.6697 35.4276 69.5199 35.6473 69.4001C36.0067 69.2204 36.3461 69.1305 36.6656 69.1305C37.1049 69.1305 37.4643 69.2803 37.7438 69.5798C38.0433 69.8793 38.1931 70.2287 38.1931 70.6281C38.1931 71.1672 37.9136 71.6564 37.3545 72.0957C36.8353 72.535 36.1065 72.9243 35.168 73.2638C34.2296 73.5833 33.2612 73.743 32.2628 73.743Z" fill="white"/>
<path d="M53.5632 57.1202C54.0823 57.1202 54.5116 57.2899 54.8511 57.6293C55.1905 57.9688 55.3602 58.4081 55.3602 58.9472V71.6165C55.3602 72.1356 55.1905 72.5749 54.8511 72.9343C54.5116 73.2738 54.0823 73.4435 53.5632 73.4435C53.044 73.4435 52.6147 73.2738 52.2753 72.9343C51.9358 72.5749 51.7661 72.1356 51.7661 71.6165V70.1489L52.425 70.4184C52.425 70.678 52.2853 70.9975 52.0057 71.3769C51.7262 71.7363 51.3468 72.0957 50.8676 72.4551C50.3884 72.8145 49.8193 73.124 49.1604 73.3836C48.5214 73.6232 47.8226 73.743 47.0638 73.743C45.6861 73.743 44.4381 73.3936 43.3199 72.6947C42.2017 71.9759 41.3132 70.9975 40.6543 69.7595C40.0153 68.5016 39.6958 67.0639 39.6958 65.4466C39.6958 63.8092 40.0153 62.3716 40.6543 61.1336C41.3132 59.8757 42.1918 58.8973 43.29 58.1984C44.3882 57.4796 45.6062 57.1202 46.944 57.1202C47.8026 57.1202 48.5913 57.25 49.3101 57.5095C50.029 57.7691 50.6479 58.0986 51.1671 58.4979C51.7062 58.8973 52.1155 59.3066 52.3951 59.7259C52.6946 60.1253 52.8443 60.4647 52.8443 60.7442L51.7661 61.1336V58.9472C51.7661 58.428 51.9358 57.9987 52.2753 57.6593C52.6147 57.2999 53.044 57.1202 53.5632 57.1202ZM47.5131 70.4484C48.3916 70.4484 49.1604 70.2287 49.8193 69.7895C50.4782 69.3502 50.9874 68.7512 51.3468 67.9924C51.7262 67.2336 51.9159 66.385 51.9159 65.4466C51.9159 64.4881 51.7262 63.6295 51.3468 62.8708C50.9874 62.112 50.4782 61.513 49.8193 61.0737C49.1604 60.6344 48.3916 60.4148 47.5131 60.4148C46.6545 60.4148 45.8957 60.6344 45.2368 61.0737C44.5779 61.513 44.0587 62.112 43.6793 62.8708C43.3199 63.6295 43.1402 64.4881 43.1402 65.4466C43.1402 66.385 43.3199 67.2336 43.6793 67.9924C44.0587 68.7512 44.5779 69.3502 45.2368 69.7895C45.8957 70.2287 46.6545 70.4484 47.5131 70.4484Z" fill="white"/>
<path d="M60.787 71.6165C60.787 72.1356 60.6073 72.5749 60.2479 72.9343C59.9084 73.2738 59.4791 73.4435 58.96 73.4435C58.4608 73.4435 58.0415 73.2738 57.702 72.9343C57.3626 72.5749 57.1929 72.1356 57.1929 71.6165V53.1067C57.1929 52.5876 57.3626 52.1583 57.702 51.8188C58.0614 51.4594 58.5007 51.2797 59.0199 51.2797C59.539 51.2797 59.9583 51.4594 60.2778 51.8188C60.6173 52.1583 60.787 52.5876 60.787 53.1067V71.6165Z" fill="white"/>
<path d="M72.024 73.743C70.5064 73.743 69.0888 73.4634 67.7709 72.9044C66.4531 72.3453 65.295 71.5765 64.2966 70.5981C63.2982 69.5998 62.5095 68.4516 61.9305 67.1538C61.3714 65.8559 61.0918 64.4582 61.0918 62.9606C61.0918 61.4631 61.3714 60.0654 61.9305 58.7675C62.5095 57.4696 63.2982 56.3315 64.2966 55.3531C65.295 54.3547 66.4531 53.576 67.7709 53.0169C69.0888 52.4578 70.5064 52.1782 72.024 52.1782C72.9624 52.1782 73.8709 52.2781 74.7495 52.4778C75.6281 52.6774 76.4368 52.9769 77.1755 53.3763C77.4751 53.536 77.6947 53.7557 77.8345 54.0352C77.9942 54.2948 78.0741 54.5643 78.0741 54.8439C78.0741 55.3231 77.9143 55.7524 77.5949 56.1318C77.2754 56.5112 76.8661 56.7009 76.3669 56.7009C76.2071 56.7009 76.0374 56.6809 75.8577 56.6409C75.698 56.601 75.5382 56.5411 75.3785 56.4612C74.8793 56.2416 74.3502 56.0719 73.7911 55.9521C73.232 55.8323 72.643 55.7724 72.024 55.7724C70.7261 55.7724 69.538 56.1018 68.4598 56.7608C67.4015 57.3997 66.5529 58.2683 65.914 59.3665C65.295 60.4447 64.9855 61.6428 64.9855 62.9606C64.9855 64.2585 65.295 65.4565 65.914 66.5547C66.5529 67.6529 67.4015 68.5315 68.4598 69.1904C69.538 69.8294 70.7261 70.1489 72.024 70.1489C72.623 70.1489 73.2819 70.089 74.0007 69.9692C74.7196 69.8494 75.3086 69.6896 75.7678 69.4899L75.4983 70.3885V65.2668L76.0075 65.7161H72.6829C72.1637 65.7161 71.7245 65.5464 71.365 65.2069C71.0256 64.8675 70.8559 64.4382 70.8559 63.9191C70.8559 63.3999 71.0256 62.9706 71.365 62.6312C71.7245 62.2917 72.1637 62.122 72.6829 62.122H77.5949C78.114 62.122 78.5433 62.3017 78.8828 62.6611C79.2222 63.0006 79.3919 63.4299 79.3919 63.949V70.2986C79.3919 70.698 79.2921 71.0274 79.0924 71.287C78.9127 71.5466 78.703 71.7562 78.4634 71.916C77.5449 72.4751 76.5366 72.9243 75.4384 73.2638C74.3601 73.5833 73.222 73.743 72.024 73.743Z" fill="white"/>
<path d="M85.5073 73.4435C84.9882 73.4435 84.5589 73.2738 84.2194 72.9343C83.88 72.5749 83.7102 72.1356 83.7102 71.6165V59.2467C83.7102 58.7275 83.88 58.2982 84.2194 57.9588C84.5589 57.5994 84.9882 57.4197 85.5073 57.4197C86.0265 57.4197 86.4558 57.5994 86.7952 57.9588C87.1346 58.2982 87.3044 58.7275 87.3044 59.2467V62.0621L87.0947 60.0554C87.3144 59.5762 87.5939 59.1568 87.9333 58.7974C88.2928 58.418 88.6921 58.1086 89.1314 57.8689C89.5707 57.6094 90.0399 57.4197 90.5391 57.2999C91.0383 57.1801 91.5374 57.1202 92.0366 57.1202C92.6357 57.1202 93.1348 57.2899 93.5342 57.6293C93.9535 57.9688 94.1632 58.3681 94.1632 58.8274C94.1632 59.4863 93.9934 59.9655 93.654 60.265C93.3145 60.5446 92.9451 60.6843 92.5458 60.6843C92.1664 60.6843 91.817 60.6145 91.4975 60.4747C91.198 60.3349 90.8486 60.265 90.4492 60.265C90.0898 60.265 89.7204 60.3549 89.341 60.5346C88.9816 60.6943 88.6422 60.9539 88.3227 61.3133C88.0232 61.6727 87.7736 62.122 87.5739 62.6611C87.3942 63.1803 87.3044 63.7992 87.3044 64.5181V71.6165C87.3044 72.1356 87.1346 72.5749 86.7952 72.9343C86.4558 73.2738 86.0265 73.4435 85.5073 73.4435Z" fill="white"/>
<path d="M109.144 65.4466C109.144 67.0839 108.775 68.5315 108.036 69.7895C107.317 71.0274 106.339 71.9958 105.101 72.6947C103.883 73.3936 102.515 73.743 100.998 73.743C99.48 73.743 98.1023 73.3936 96.8643 72.6947C95.6463 71.9958 94.6679 71.0274 93.9291 69.7895C93.2103 68.5315 92.8509 67.0839 92.8509 65.4466C92.8509 63.8092 93.2103 62.3716 93.9291 61.1336C94.6679 59.8757 95.6463 58.8973 96.8643 58.1984C98.1023 57.4796 99.48 57.1202 100.998 57.1202C102.515 57.1202 103.883 57.4796 105.101 58.1984C106.339 58.8973 107.317 59.8757 108.036 61.1336C108.775 62.3716 109.144 63.8092 109.144 65.4466ZM105.55 65.4466C105.55 64.4282 105.34 63.5497 104.921 62.8109C104.522 62.0521 103.973 61.4631 103.274 61.0438C102.595 60.6244 101.836 60.4148 100.998 60.4148C100.159 60.4148 99.3902 60.6244 98.6913 61.0438C98.0124 61.4631 97.4633 62.0521 97.044 62.8109C96.6447 63.5497 96.445 64.4282 96.445 65.4466C96.445 66.4449 96.6447 67.3235 97.044 68.0822C97.4633 68.821 98.0124 69.4001 98.6913 69.8194C99.3902 70.2387 100.159 70.4484 100.998 70.4484C101.836 70.4484 102.595 70.2387 103.274 69.8194C103.973 69.4001 104.522 68.821 104.921 68.0822C105.34 67.3235 105.55 66.4449 105.55 65.4466Z" fill="white"/>
</svg>
